<svg width="50" height="50" viewBox="0 0 50 50" fill="none" xmlns="http://www.w3.org/2000/svg">
<g clip-path="url(#clip0_117_514)">
<path d="M13.6667 10.119C13.6667 9.35226 13.9653 8.61689 14.4966 8.07469C15.028 7.53249 15.7486 7.22789 16.5001 7.22789H33.5001C34.2515 7.22789 34.9722 7.53249 35.5035 8.07469C36.0349 8.61689 36.3334 9.35226 36.3334 10.119V27.466C36.3334 28.2328 36.0349 28.9681 35.5035 29.5103C34.9722 30.0525 34.2515 30.3571 33.5001 30.3571H16.5001C15.7486 30.3571 15.028 30.0525 14.4966 29.5103C13.9653 28.9681 13.6667 28.2328 13.6667 27.466V10.119Z" stroke="#262626" stroke-width="2.75" stroke-linecap="round" stroke-linejoin="round"/>
<path d="M30.6667 4.33673V10.119" stroke="#262626" stroke-width="2.75" stroke-linecap="round" stroke-linejoin="round"/>
<path d="M19.3333 4.33673V10.119" stroke="#262626" stroke-width="2.75" stroke-linecap="round" stroke-linejoin="round"/>
<path d="M13.6667 15.9014H36.3334" stroke="#262626" stroke-width="2.75" stroke-linecap="round" stroke-linejoin="round"/>
<path d="M23.5833 21.6837H24.9999" stroke="#262626" stroke-width="2.75" stroke-linecap="round" stroke-linejoin="round"/>
<path d="M25 21.6837V26.0204" stroke="#262626" stroke-width="2.75" stroke-linecap="round" stroke-linejoin="round"/>
</g>
<path d="M6.27125 46.8555C5.68458 46.8555 5.18058 46.7382 4.75925 46.5035C4.34325 46.2635 4.02325 45.9275 3.79925 45.4955C3.57525 45.0582 3.46325 44.5435 3.46325 43.9515C3.46325 43.5088 3.52725 43.1115 3.65525 42.7595C3.78325 42.4022 3.96725 42.0982 4.20725 41.8475C4.44725 41.5915 4.74058 41.3968 5.08725 41.2635C5.43925 41.1248 5.83392 41.0555 6.27125 41.0555C6.56458 41.0555 6.85258 41.0928 7.13525 41.1675C7.41792 41.2422 7.66592 41.3488 7.87925 41.4875C7.99125 41.5568 8.06592 41.6422 8.10325 41.7435C8.14058 41.8395 8.14858 41.9355 8.12725 42.0315C8.10592 42.1222 8.06058 42.1995 7.99125 42.2635C7.92725 42.3275 7.84458 42.3648 7.74325 42.3755C7.64725 42.3808 7.54058 42.3462 7.42325 42.2715C7.25792 42.1648 7.07925 42.0875 6.88725 42.0395C6.69525 41.9915 6.50058 41.9675 6.30325 41.9675C5.92458 41.9675 5.60458 42.0448 5.34325 42.1995C5.08192 42.3542 4.88458 42.5782 4.75125 42.8715C4.61792 43.1648 4.55125 43.5248 4.55125 43.9515C4.55125 44.3728 4.61792 44.7328 4.75125 45.0315C4.88458 45.3302 5.08192 45.5568 5.34325 45.7115C5.60458 45.8662 5.92458 45.9435 6.30325 45.9435C6.50592 45.9435 6.70592 45.9195 6.90325 45.8715C7.10058 45.8182 7.28725 45.7382 7.46325 45.6315C7.58058 45.5622 7.68458 45.5328 7.77525 45.5435C7.87125 45.5488 7.95125 45.5808 8.01525 45.6395C8.07925 45.6982 8.12192 45.7728 8.14325 45.8635C8.16458 45.9488 8.15925 46.0395 8.12725 46.1355C8.09525 46.2262 8.03125 46.3062 7.93525 46.3755C7.72192 46.5302 7.46592 46.6502 7.16725 46.7355C6.87392 46.8155 6.57525 46.8555 6.27125 46.8555ZM9.02356 46.8395C8.89556 46.8395 8.79156 46.8102 8.71156 46.7515C8.6369 46.6928 8.59156 46.6155 8.57556 46.5195C8.55956 46.4182 8.57823 46.3062 8.63156 46.1835L10.7436 41.5035C10.8129 41.3488 10.8956 41.2395 10.9916 41.1755C11.0929 41.1062 11.2076 41.0715 11.3356 41.0715C11.4582 41.0715 11.5676 41.1062 11.6636 41.1755C11.7649 41.2395 11.8502 41.3488 11.9196 41.5035L14.0396 46.1835C14.0982 46.3062 14.1196 46.4182 14.1036 46.5195C14.0876 46.6208 14.0422 46.7008 13.9676 46.7595C13.8929 46.8128 13.7942 46.8395 13.6716 46.8395C13.5222 46.8395 13.4049 46.8048 13.3196 46.7355C13.2396 46.6608 13.1676 46.5488 13.1036 46.3995L12.5836 45.1915L13.0156 45.4715H9.63956L10.0716 45.1915L9.55956 46.3995C9.49023 46.5542 9.41823 46.6662 9.34356 46.7355C9.2689 46.8048 9.16223 46.8395 9.02356 46.8395ZM11.3196 42.2475L10.1996 44.9115L9.99156 44.6555H12.6636L12.4636 44.9115L11.3356 42.2475H11.3196ZM15.4407 46.7755C15.2754 46.7755 15.1474 46.7302 15.0567 46.6395C14.966 46.5435 14.9207 46.4128 14.9207 46.2475V41.6315C14.9207 41.4608 14.9634 41.3328 15.0487 41.2475C15.1394 41.1568 15.2674 41.1115 15.4327 41.1115C15.598 41.1115 15.7234 41.1568 15.8087 41.2475C15.8994 41.3328 15.9447 41.4608 15.9447 41.6315V45.9035H18.2647C18.4087 45.9035 18.518 45.9408 18.5927 46.0155C18.6727 46.0902 18.7127 46.1968 18.7127 46.3355C18.7127 46.4742 18.6727 46.5835 18.5927 46.6635C18.518 46.7382 18.4087 46.7755 18.2647 46.7755H15.4407ZM19.9569 46.7755C19.7809 46.7755 19.6449 46.7302 19.5489 46.6395C19.4582 46.5435 19.4129 46.4075 19.4129 46.2315V41.6795C19.4129 41.5035 19.4582 41.3702 19.5489 41.2795C19.6449 41.1835 19.7809 41.1355 19.9569 41.1355H22.8129C22.9462 41.1355 23.0475 41.1702 23.1169 41.2395C23.1915 41.3088 23.2289 41.4075 23.2289 41.5355C23.2289 41.6688 23.1915 41.7728 23.1169 41.8475C23.0475 41.9168 22.9462 41.9515 22.8129 41.9515H20.3969V43.5035H22.6369C22.7755 43.5035 22.8795 43.5382 22.9489 43.6075C23.0182 43.6768 23.0529 43.7782 23.0529 43.9115C23.0529 44.0448 23.0182 44.1462 22.9489 44.2155C22.8795 44.2848 22.7755 44.3195 22.6369 44.3195H20.3969V45.9595H22.8129C22.9462 45.9595 23.0475 45.9942 23.1169 46.0635C23.1915 46.1328 23.2289 46.2342 23.2289 46.3675C23.2289 46.5008 23.1915 46.6022 23.1169 46.6715C23.0475 46.7408 22.9462 46.7755 22.8129 46.7755H19.9569ZM24.6663 46.8395C24.5116 46.8395 24.3916 46.7968 24.3063 46.7115C24.2263 46.6262 24.1863 46.5035 24.1863 46.3435V41.5835C24.1863 41.4182 24.2263 41.2928 24.3063 41.2075C24.3916 41.1168 24.501 41.0715 24.6343 41.0715C24.757 41.0715 24.8476 41.0955 24.9063 41.1435C24.9703 41.1862 25.045 41.2608 25.1303 41.3675L28.1943 45.3435H27.9863V41.5595C27.9863 41.4048 28.0263 41.2848 28.1063 41.1995C28.1916 41.1142 28.3116 41.0715 28.4663 41.0715C28.621 41.0715 28.7383 41.1142 28.8183 41.1995C28.8983 41.2848 28.9383 41.4048 28.9383 41.5595V46.3595C28.9383 46.5088 28.901 46.6262 28.8263 46.7115C28.7516 46.7968 28.6503 46.8395 28.5223 46.8395C28.3996 46.8395 28.301 46.8155 28.2263 46.7675C28.157 46.7195 28.0796 46.6422 27.9943 46.5355L24.9383 42.5595H25.1383V46.3435C25.1383 46.5035 25.0983 46.6262 25.0183 46.7115C24.9383 46.7968 24.821 46.8395 24.6663 46.8395ZM30.7147 46.7755C30.5387 46.7755 30.4027 46.7302 30.3067 46.6395C30.216 46.5435 30.1707 46.4075 30.1707 46.2315V41.6795C30.1707 41.5035 30.216 41.3702 30.3067 41.2795C30.4027 41.1835 30.5387 41.1355 30.7147 41.1355H32.2667C33.2107 41.1355 33.9387 41.3782 34.4507 41.8635C34.968 42.3488 35.2267 43.0448 35.2267 43.9515C35.2267 44.4048 35.16 44.8075 35.0267 45.1595C34.8987 45.5062 34.7067 45.7995 34.4507 46.0395C34.2 46.2795 33.8907 46.4635 33.5227 46.5915C33.16 46.7142 32.7414 46.7755 32.2667 46.7755H30.7147ZM31.1947 45.9275H32.2027C32.5334 45.9275 32.8187 45.8875 33.0587 45.8075C33.304 45.7222 33.5067 45.5995 33.6667 45.4395C33.832 45.2742 33.9547 45.0688 34.0347 44.8235C34.1147 44.5728 34.1547 44.2822 34.1547 43.9515C34.1547 43.2902 33.992 42.7968 33.6667 42.4715C33.3414 42.1462 32.8534 41.9835 32.2027 41.9835H31.1947V45.9275ZM36.2033 46.8395C36.0753 46.8395 35.9713 46.8102 35.8913 46.7515C35.8166 46.6928 35.7713 46.6155 35.7553 46.5195C35.7393 46.4182 35.7579 46.3062 35.8113 46.1835L37.9233 41.5035C37.9926 41.3488 38.0753 41.2395 38.1713 41.1755C38.2726 41.1062 38.3873 41.0715 38.5153 41.0715C38.6379 41.0715 38.7473 41.1062 38.8433 41.1755C38.9446 41.2395 39.0299 41.3488 39.0993 41.5035L41.2193 46.1835C41.2779 46.3062 41.2993 46.4182 41.2833 46.5195C41.2673 46.6208 41.2219 46.7008 41.1473 46.7595C41.0726 46.8128 40.9739 46.8395 40.8513 46.8395C40.7019 46.8395 40.5846 46.8048 40.4993 46.7355C40.4193 46.6608 40.3473 46.5488 40.2833 46.3995L39.7633 45.1915L40.1953 45.4715H36.8193L37.2513 45.1915L36.7393 46.3995C36.6699 46.5542 36.5979 46.6662 36.5233 46.7355C36.4486 46.8048 36.3419 46.8395 36.2033 46.8395ZM38.4993 42.2475L37.3793 44.9115L37.1713 44.6555H39.8433L39.6432 44.9115L38.5153 42.2475H38.4993ZM42.6124 46.8395C42.447 46.8395 42.319 46.7942 42.2284 46.7035C42.143 46.6075 42.1004 46.4768 42.1004 46.3115V41.6555C42.1004 41.4848 42.1457 41.3568 42.2364 41.2715C42.327 41.1808 42.455 41.1355 42.6204 41.1355H44.5484C45.167 41.1355 45.6444 41.2848 45.9804 41.5835C46.3164 41.8768 46.4844 42.2902 46.4844 42.8235C46.4844 43.1702 46.407 43.4688 46.2524 43.7195C46.103 43.9702 45.8844 44.1622 45.5964 44.2955C45.3084 44.4288 44.959 44.4955 44.5484 44.4955L44.6204 44.3755H44.8844C45.103 44.3755 45.2924 44.4288 45.4524 44.5355C45.6177 44.6422 45.7617 44.8102 45.8844 45.0395L46.4844 46.1515C46.5484 46.2635 46.5777 46.3728 46.5724 46.4795C46.567 46.5862 46.527 46.6742 46.4524 46.7435C46.3777 46.8075 46.2684 46.8395 46.1244 46.8395C45.9804 46.8395 45.863 46.8102 45.7724 46.7515C45.6817 46.6875 45.6017 46.5915 45.5324 46.4635L44.7244 44.9755C44.6284 44.7942 44.5137 44.6742 44.3804 44.6155C44.2524 44.5515 44.087 44.5195 43.8844 44.5195H43.1244V46.3115C43.1244 46.4768 43.0817 46.6075 42.9964 46.7035C42.911 46.7942 42.783 46.8395 42.6124 46.8395ZM43.1244 43.7595H44.3724C44.7404 43.7595 45.0177 43.6848 45.2044 43.5355C45.3964 43.3808 45.4924 43.1515 45.4924 42.8475C45.4924 42.5488 45.3964 42.3248 45.2044 42.1755C45.0177 42.0208 44.7404 41.9435 44.3724 41.9435H43.1244V43.7595Z" fill="#262626"/>
<defs>
<clipPath id="clip0_117_514">
<rect width="34" height="34.6939" fill="white" transform="translate(8)"/>
</clipPath>
</defs>
</svg>
