<svg width="50" height="50" viewBox="0 0 50 50" fill="none" xmlns="http://www.w3.org/2000/svg">
<g clip-path="url(#clip0_117_503)">
<g clip-path="url(#clip1_117_503)">
<path d="M11.9768 17.3469C11.9768 19.0555 12.3133 20.7473 12.9671 22.3257C13.621 23.9042 14.5793 25.3384 15.7874 26.5465C16.9955 27.7547 18.4298 28.713 20.0082 29.3668C21.5867 30.0206 23.2785 30.3571 24.987 30.3571C26.6955 30.3571 28.3873 30.0206 29.9658 29.3668C31.5443 28.713 32.9785 27.7547 34.1866 26.5465C35.3947 25.3384 36.353 23.9042 37.0069 22.3257C37.6607 20.7473 37.9972 19.0555 37.9972 17.3469C37.9972 15.6384 37.6607 13.9466 37.0069 12.3681C36.353 10.7897 35.3947 9.35544 34.1866 8.14734C32.9785 6.93923 31.5443 5.9809 29.9658 5.32708C28.3873 4.67325 26.6955 4.33673 24.987 4.33673C23.2785 4.33673 21.5867 4.67325 20.0082 5.32708C18.4298 5.9809 16.9955 6.93923 15.7874 8.14734C14.5793 9.35544 13.621 10.7897 12.9671 12.3681C12.3133 13.9466 11.9768 15.6384 11.9768 17.3469Z" stroke="#262626" stroke-width="2.75" stroke-linecap="round" stroke-linejoin="round"/>
<path d="M24.9869 17.3469L29.3237 20.2381" stroke="#262626" stroke-width="2.75" stroke-linecap="round" stroke-linejoin="round"/>
<path d="M24.9869 10.119V17.3469" stroke="#262626" stroke-width="2.75" stroke-linecap="round" stroke-linejoin="round"/>
</g>
<path d="M1.87409 46.8395C1.70876 46.8395 1.58076 46.7942 1.49009 46.7035C1.40476 46.6075 1.36209 46.4768 1.36209 46.3115V41.5995C1.36209 41.4288 1.40476 41.2982 1.49009 41.2075C1.58076 41.1168 1.70876 41.0715 1.87409 41.0715C2.03943 41.0715 2.16476 41.1168 2.25009 41.2075C2.34076 41.2982 2.38609 41.4288 2.38609 41.5995V46.3115C2.38609 46.4768 2.34343 46.6075 2.25809 46.7035C2.17276 46.7942 2.04476 46.8395 1.87409 46.8395ZM4.09991 46.8395C3.94524 46.8395 3.82524 46.7968 3.73991 46.7115C3.65991 46.6262 3.61991 46.5035 3.61991 46.3435V41.5835C3.61991 41.4182 3.65991 41.2928 3.73991 41.2075C3.82524 41.1168 3.93457 41.0715 4.06791 41.0715C4.19057 41.0715 4.28124 41.0955 4.33991 41.1435C4.40391 41.1862 4.47857 41.2608 4.56391 41.3675L7.62791 45.3435H7.41991V41.5595C7.41991 41.4048 7.45991 41.2848 7.53991 41.1995C7.62524 41.1142 7.74524 41.0715 7.89991 41.0715C8.05457 41.0715 8.17191 41.1142 8.25191 41.1995C8.33191 41.2848 8.37191 41.4048 8.37191 41.5595V46.3595C8.37191 46.5088 8.33457 46.6262 8.25991 46.7115C8.18524 46.7968 8.08391 46.8395 7.95591 46.8395C7.83324 46.8395 7.73457 46.8155 7.65991 46.7675C7.59057 46.7195 7.51324 46.6422 7.42791 46.5355L4.37191 42.5595H4.57191V46.3435C4.57191 46.5035 4.53191 46.6262 4.45191 46.7115C4.37191 46.7968 4.25457 46.8395 4.09991 46.8395ZM11.4763 46.8395C11.3109 46.8395 11.1829 46.7942 11.0923 46.7035C11.0069 46.6075 10.9643 46.4768 10.9643 46.3115V41.9915H9.40428C9.26561 41.9915 9.15628 41.9542 9.07628 41.8795C9.00161 41.7995 8.96428 41.6928 8.96428 41.5595C8.96428 41.4208 9.00161 41.3168 9.07628 41.2475C9.15628 41.1728 9.26561 41.1355 9.40428 41.1355H13.5483C13.6869 41.1355 13.7936 41.1728 13.8683 41.2475C13.9483 41.3168 13.9883 41.4208 13.9883 41.5595C13.9883 41.6928 13.9483 41.7995 13.8683 41.8795C13.7936 41.9542 13.6869 41.9915 13.5483 41.9915H11.9883V46.3115C11.9883 46.4768 11.9456 46.6075 11.8603 46.7035C11.7749 46.7942 11.6469 46.8395 11.4763 46.8395ZM15.117 46.7755C14.941 46.7755 14.805 46.7302 14.709 46.6395C14.6184 46.5435 14.573 46.4075 14.573 46.2315V41.6795C14.573 41.5035 14.6184 41.3702 14.709 41.2795C14.805 41.1835 14.941 41.1355 15.117 41.1355H17.973C18.1064 41.1355 18.2077 41.1702 18.277 41.2395C18.3517 41.3088 18.389 41.4075 18.389 41.5355C18.389 41.6688 18.3517 41.7728 18.277 41.8475C18.2077 41.9168 18.1064 41.9515 17.973 41.9515H15.557V43.5035H17.797C17.9357 43.5035 18.0397 43.5382 18.109 43.6075C18.1784 43.6768 18.213 43.7782 18.213 43.9115C18.213 44.0448 18.1784 44.1462 18.109 44.2155C18.0397 44.2848 17.9357 44.3195 17.797 44.3195H15.557V45.9595H17.973C18.1064 45.9595 18.2077 45.9942 18.277 46.0635C18.3517 46.1328 18.389 46.2342 18.389 46.3675C18.389 46.5008 18.3517 46.6022 18.277 46.6715C18.2077 46.7408 18.1064 46.7755 17.973 46.7755H15.117ZM19.8265 46.8395C19.6718 46.8395 19.5518 46.7968 19.4665 46.7115C19.3865 46.6262 19.3465 46.5035 19.3465 46.3435V41.5835C19.3465 41.4182 19.3865 41.2928 19.4665 41.2075C19.5518 41.1168 19.6611 41.0715 19.7945 41.0715C19.9171 41.0715 20.0078 41.0955 20.0665 41.1435C20.1305 41.1862 20.2051 41.2608 20.2905 41.3675L23.3545 45.3435H23.1465V41.5595C23.1465 41.4048 23.1865 41.2848 23.2665 41.1995C23.3518 41.1142 23.4718 41.0715 23.6265 41.0715C23.7811 41.0715 23.8985 41.1142 23.9785 41.1995C24.0585 41.2848 24.0985 41.4048 24.0985 41.5595V46.3595C24.0985 46.5088 24.0611 46.6262 23.9865 46.7115C23.9118 46.7968 23.8105 46.8395 23.6825 46.8395C23.5598 46.8395 23.4611 46.8155 23.3865 46.7675C23.3171 46.7195 23.2398 46.6422 23.1545 46.5355L20.0985 42.5595H20.2985V46.3435C20.2985 46.5035 20.2585 46.6262 20.1785 46.7115C20.0985 46.7968 19.9811 46.8395 19.8265 46.8395ZM27.2028 46.8395C27.0375 46.8395 26.9095 46.7942 26.8188 46.7035C26.7335 46.6075 26.6908 46.4768 26.6908 46.3115V41.9915H25.1308C24.9922 41.9915 24.8828 41.9542 24.8028 41.8795C24.7282 41.7995 24.6908 41.6928 24.6908 41.5595C24.6908 41.4208 24.7282 41.3168 24.8028 41.2475C24.8828 41.1728 24.9922 41.1355 25.1308 41.1355H29.2748C29.4135 41.1355 29.5202 41.1728 29.5948 41.2475C29.6748 41.3168 29.7148 41.4208 29.7148 41.5595C29.7148 41.6928 29.6748 41.7995 29.5948 41.8795C29.5202 41.9542 29.4135 41.9915 29.2748 41.9915H27.7148V46.3115C27.7148 46.4768 27.6722 46.6075 27.5868 46.7035C27.5015 46.7942 27.3735 46.8395 27.2028 46.8395ZM30.8116 46.8395C30.6463 46.8395 30.5183 46.7942 30.4276 46.7035C30.3423 46.6075 30.2996 46.4768 30.2996 46.3115V41.5995C30.2996 41.4288 30.3423 41.2982 30.4276 41.2075C30.5183 41.1168 30.6463 41.0715 30.8116 41.0715C30.9769 41.0715 31.1023 41.1168 31.1876 41.2075C31.2783 41.2982 31.3236 41.4288 31.3236 41.5995V46.3115C31.3236 46.4768 31.2809 46.6075 31.1956 46.7035C31.1103 46.7942 30.9823 46.8395 30.8116 46.8395ZM35.0854 46.8555C34.5414 46.8555 34.0641 46.7355 33.6534 46.4955C33.2481 46.2555 32.9334 45.9195 32.7094 45.4875C32.4854 45.0502 32.3734 44.5382 32.3734 43.9515C32.3734 43.5088 32.4374 43.1115 32.5654 42.7595C32.6934 42.4022 32.8747 42.0982 33.1094 41.8475C33.3494 41.5915 33.6347 41.3968 33.9654 41.2635C34.3014 41.1248 34.6747 41.0555 35.0854 41.0555C35.6347 41.0555 36.1121 41.1755 36.5174 41.4155C36.9227 41.6502 37.2374 41.9835 37.4614 42.4155C37.6854 42.8475 37.7974 43.3568 37.7974 43.9435C37.7974 44.3862 37.7334 44.7862 37.6054 45.1435C37.4774 45.5008 37.2934 45.8075 37.0534 46.0635C36.8187 46.3195 36.5334 46.5168 36.1974 46.6555C35.8667 46.7888 35.4961 46.8555 35.0854 46.8555ZM35.0854 45.9755C35.4321 45.9755 35.7254 45.8955 35.9654 45.7355C36.2107 45.5755 36.3974 45.3435 36.5254 45.0395C36.6587 44.7355 36.7254 44.3728 36.7254 43.9515C36.7254 43.3115 36.5814 42.8155 36.2934 42.4635C36.0107 42.1115 35.6081 41.9355 35.0854 41.9355C34.7441 41.9355 34.4507 42.0155 34.2054 42.1755C33.9601 42.3302 33.7707 42.5595 33.6374 42.8635C33.5094 43.1622 33.4454 43.5248 33.4454 43.9515C33.4454 44.5862 33.5894 45.0822 33.8774 45.4395C34.1654 45.7968 34.5681 45.9755 35.0854 45.9755ZM39.3187 46.8395C39.164 46.8395 39.044 46.7968 38.9587 46.7115C38.8787 46.6262 38.8387 46.5035 38.8387 46.3435V41.5835C38.8387 41.4182 38.8787 41.2928 38.9587 41.2075C39.044 41.1168 39.1533 41.0715 39.2867 41.0715C39.4093 41.0715 39.5 41.0955 39.5587 41.1435C39.6227 41.1862 39.6973 41.2608 39.7827 41.3675L42.8467 45.3435H42.6387V41.5595C42.6387 41.4048 42.6787 41.2848 42.7587 41.1995C42.844 41.1142 42.964 41.0715 43.1187 41.0715C43.2733 41.0715 43.3907 41.1142 43.4707 41.1995C43.5507 41.2848 43.5907 41.4048 43.5907 41.5595V46.3595C43.5907 46.5088 43.5533 46.6262 43.4787 46.7115C43.404 46.7968 43.3027 46.8395 43.1747 46.8395C43.052 46.8395 42.9533 46.8155 42.8787 46.7675C42.8093 46.7195 42.732 46.6422 42.6467 46.5355L39.5907 42.5595H39.7907V46.3435C39.7907 46.5035 39.7507 46.6262 39.6707 46.7115C39.5907 46.7968 39.4733 46.8395 39.3187 46.8395ZM46.767 46.8555C46.5324 46.8555 46.2977 46.8368 46.063 46.7995C45.8284 46.7675 45.607 46.7168 45.399 46.6475C45.191 46.5728 45.0044 46.4822 44.839 46.3755C44.743 46.3115 44.6764 46.2342 44.639 46.1435C44.6017 46.0528 44.5884 45.9648 44.599 45.8795C44.615 45.7888 44.6497 45.7115 44.703 45.6475C44.7617 45.5782 44.8337 45.5355 44.919 45.5195C45.0044 45.5035 45.0977 45.5275 45.199 45.5915C45.4337 45.7302 45.6817 45.8315 45.943 45.8955C46.2044 45.9595 46.479 45.9915 46.767 45.9915C47.1884 45.9915 47.495 45.9222 47.687 45.7835C47.879 45.6395 47.975 45.4555 47.975 45.2315C47.975 45.0448 47.9057 44.8982 47.767 44.7915C47.6337 44.6848 47.4017 44.5968 47.071 44.5275L46.191 44.3435C45.6844 44.2368 45.3057 44.0582 45.055 43.8075C44.8097 43.5515 44.687 43.2155 44.687 42.7995C44.687 42.5382 44.7404 42.3008 44.847 42.0875C44.9537 41.8742 45.103 41.6902 45.295 41.5355C45.4924 41.3808 45.7244 41.2635 45.991 41.1835C46.263 41.0982 46.5617 41.0555 46.887 41.0555C47.207 41.0555 47.511 41.0955 47.799 41.1755C48.087 41.2555 48.3457 41.3728 48.575 41.5275C48.6604 41.5862 48.7164 41.6582 48.743 41.7435C48.775 41.8288 48.783 41.9142 48.767 41.9995C48.751 42.0795 48.7137 42.1488 48.655 42.2075C48.5964 42.2662 48.5217 42.3008 48.431 42.3115C48.3457 42.3222 48.247 42.2955 48.135 42.2315C47.9377 42.1195 47.7377 42.0395 47.535 41.9915C47.3324 41.9435 47.1137 41.9195 46.879 41.9195C46.6337 41.9195 46.423 41.9542 46.247 42.0235C46.071 42.0928 45.935 42.1915 45.839 42.3195C45.7484 42.4422 45.703 42.5888 45.703 42.7595C45.703 42.9515 45.767 43.1062 45.895 43.2235C46.023 43.3355 46.2417 43.4235 46.551 43.4875L47.423 43.6715C47.951 43.7835 48.343 43.9595 48.599 44.1995C48.8604 44.4395 48.991 44.7595 48.991 45.1595C48.991 45.4155 48.9377 45.6475 48.831 45.8555C48.7297 46.0635 48.5804 46.2422 48.383 46.3915C48.191 46.5408 47.959 46.6555 47.687 46.7355C47.415 46.8155 47.1084 46.8555 46.767 46.8555Z" fill="#262626"/>
</g>
<defs>
<clipPath id="clip0_117_503">
<rect width="50" height="50" fill="white"/>
</clipPath>
<clipPath id="clip1_117_503">
<rect width="34.6939" height="34.6939" fill="white" transform="translate(7.64001)"/>
</clipPath>
</defs>
</svg>
