<svg width="50" height="50" viewBox="0 0 50 50" fill="none" xmlns="http://www.w3.org/2000/svg">
<g clip-path="url(#clip0_117_502)">
<g clip-path="url(#clip1_117_502)">
<path d="M20.125 9.94898H38" stroke="#262626" stroke-width="2.75" stroke-linecap="round" stroke-linejoin="round"/>
<path d="M20.125 19.898H38" stroke="#262626" stroke-width="2.75" stroke-linecap="round" stroke-linejoin="round"/>
<path d="M20.125 29.8469H38" stroke="#262626" stroke-width="2.75" stroke-linecap="round" stroke-linejoin="round"/>
<path d="M13.625 9.94898V9.96523" stroke="#262626" stroke-width="2.75" stroke-linecap="round" stroke-linejoin="round"/>
<path d="M13.625 19.898V19.9142" stroke="#262626" stroke-width="2.75" stroke-linecap="round" stroke-linejoin="round"/>
<path d="M13.625 29.8469V29.8632" stroke="#262626" stroke-width="2.75" stroke-linecap="round" stroke-linejoin="round"/>
</g>
<path d="M15.2575 46.8395C15.0922 46.8395 14.9642 46.7942 14.8735 46.7035C14.7882 46.6075 14.7455 46.4768 14.7455 46.3115V41.9915H13.1855C13.0469 41.9915 12.9375 41.9542 12.8575 41.8795C12.7829 41.7995 12.7455 41.6928 12.7455 41.5595C12.7455 41.4208 12.7829 41.3168 12.8575 41.2475C12.9375 41.1728 13.0469 41.1355 13.1855 41.1355H17.3295C17.4682 41.1355 17.5749 41.1728 17.6495 41.2475C17.7295 41.3168 17.7695 41.4208 17.7695 41.5595C17.7695 41.6928 17.7295 41.7995 17.6495 41.8795C17.5749 41.9542 17.4682 41.9915 17.3295 41.9915H15.7695V46.3115C15.7695 46.4768 15.7269 46.6075 15.6415 46.7035C15.5562 46.7942 15.4282 46.8395 15.2575 46.8395ZM17.7853 46.8395C17.6573 46.8395 17.5533 46.8102 17.4733 46.7515C17.3986 46.6928 17.3533 46.6155 17.3373 46.5195C17.3213 46.4182 17.3399 46.3062 17.3933 46.1835L19.5053 41.5035C19.5746 41.3488 19.6573 41.2395 19.7533 41.1755C19.8546 41.1062 19.9693 41.0715 20.0973 41.0715C20.2199 41.0715 20.3293 41.1062 20.4253 41.1755C20.5266 41.2395 20.6119 41.3488 20.6813 41.5035L22.8013 46.1835C22.8599 46.3062 22.8813 46.4182 22.8653 46.5195C22.8493 46.6208 22.8039 46.7008 22.7293 46.7595C22.6546 46.8128 22.5559 46.8395 22.4333 46.8395C22.2839 46.8395 22.1666 46.8048 22.0813 46.7355C22.0013 46.6608 21.9293 46.5488 21.8653 46.3995L21.3453 45.1915L21.7773 45.4715H18.4013L18.8333 45.1915L18.3213 46.3995C18.2519 46.5542 18.1799 46.6662 18.1053 46.7355C18.0306 46.8048 17.9239 46.8395 17.7853 46.8395ZM20.0813 42.2475L18.9613 44.9115L18.7533 44.6555H21.4253L21.2253 44.9115L20.0973 42.2475H20.0813ZM25.5639 46.8555C25.3292 46.8555 25.0946 46.8368 24.8599 46.7995C24.6252 46.7675 24.4039 46.7168 24.1959 46.6475C23.9879 46.5728 23.8012 46.4822 23.6359 46.3755C23.5399 46.3115 23.4732 46.2342 23.4359 46.1435C23.3986 46.0528 23.3852 45.9648 23.3959 45.8795C23.4119 45.7888 23.4466 45.7115 23.4999 45.6475C23.5586 45.5782 23.6306 45.5355 23.7159 45.5195C23.8012 45.5035 23.8946 45.5275 23.9959 45.5915C24.2306 45.7302 24.4786 45.8315 24.7399 45.8955C25.0012 45.9595 25.2759 45.9915 25.5639 45.9915C25.9852 45.9915 26.2919 45.9222 26.4839 45.7835C26.6759 45.6395 26.7719 45.4555 26.7719 45.2315C26.7719 45.0448 26.7026 44.8982 26.5639 44.7915C26.4306 44.6848 26.1986 44.5968 25.8679 44.5275L24.9879 44.3435C24.4812 44.2368 24.1026 44.0582 23.8519 43.8075C23.6066 43.5515 23.4839 43.2155 23.4839 42.7995C23.4839 42.5382 23.5372 42.3008 23.6439 42.0875C23.7506 41.8742 23.8999 41.6902 24.0919 41.5355C24.2892 41.3808 24.5212 41.2635 24.7879 41.1835C25.0599 41.0982 25.3586 41.0555 25.6839 41.0555C26.0039 41.0555 26.3079 41.0955 26.5959 41.1755C26.8839 41.2555 27.1426 41.3728 27.3719 41.5275C27.4572 41.5862 27.5132 41.6582 27.5399 41.7435C27.5719 41.8288 27.5799 41.9142 27.5639 41.9995C27.5479 42.0795 27.5106 42.1488 27.4519 42.2075C27.3932 42.2662 27.3186 42.3008 27.2279 42.3115C27.1426 42.3222 27.0439 42.2955 26.9319 42.2315C26.7346 42.1195 26.5346 42.0395 26.3319 41.9915C26.1292 41.9435 25.9106 41.9195 25.6759 41.9195C25.4306 41.9195 25.2199 41.9542 25.0439 42.0235C24.8679 42.0928 24.7319 42.1915 24.6359 42.3195C24.5452 42.4422 24.4999 42.5888 24.4999 42.7595C24.4999 42.9515 24.5639 43.1062 24.6919 43.2235C24.8199 43.3355 25.0386 43.4235 25.3479 43.4875L26.2199 43.6715C26.7479 43.7835 27.1399 43.9595 27.3959 44.1995C27.6572 44.4395 27.7879 44.7595 27.7879 45.1595C27.7879 45.4155 27.7346 45.6475 27.6279 45.8555C27.5266 46.0635 27.3772 46.2422 27.1799 46.3915C26.9879 46.5408 26.7559 46.6555 26.4839 46.7355C26.2119 46.8155 25.9052 46.8555 25.5639 46.8555ZM29.1788 46.8395C29.0134 46.8395 28.8854 46.7942 28.7948 46.7035C28.7094 46.6075 28.6668 46.4768 28.6668 46.3115V41.5915C28.6668 41.4208 28.7094 41.2928 28.7948 41.2075C28.8854 41.1168 29.0134 41.0715 29.1788 41.0715C29.3441 41.0715 29.4694 41.1168 29.5548 41.2075C29.6454 41.2928 29.6908 41.4208 29.6908 41.5915V43.6315H29.7068L32.0028 41.3275C32.0881 41.2422 32.1734 41.1782 32.2588 41.1355C32.3441 41.0928 32.4401 41.0715 32.5468 41.0715C32.7014 41.0715 32.8108 41.1115 32.8748 41.1915C32.9441 41.2715 32.9708 41.3648 32.9548 41.4715C32.9441 41.5782 32.8934 41.6768 32.8028 41.7675L30.4668 44.0795L30.4748 43.6155L32.9148 46.0955C33.0268 46.2022 33.0854 46.3142 33.0908 46.4315C33.0961 46.5488 33.0588 46.6475 32.9788 46.7275C32.9041 46.8022 32.7921 46.8395 32.6428 46.8395C32.5148 46.8395 32.4108 46.8128 32.3308 46.7595C32.2561 46.7062 32.1681 46.6288 32.0668 46.5275L29.7068 44.1675H29.6908V46.3115C29.6908 46.4768 29.6481 46.6075 29.5628 46.7035C29.4774 46.7942 29.3494 46.8395 29.1788 46.8395ZM35.7436 46.8555C35.5089 46.8555 35.2743 46.8368 35.0396 46.7995C34.8049 46.7675 34.5836 46.7168 34.3756 46.6475C34.1676 46.5728 33.9809 46.4822 33.8156 46.3755C33.7196 46.3115 33.6529 46.2342 33.6156 46.1435C33.5783 46.0528 33.5649 45.9648 33.5756 45.8795C33.5916 45.7888 33.6263 45.7115 33.6796 45.6475C33.7383 45.5782 33.8103 45.5355 33.8956 45.5195C33.9809 45.5035 34.0743 45.5275 34.1756 45.5915C34.4103 45.7302 34.6583 45.8315 34.9196 45.8955C35.1809 45.9595 35.4556 45.9915 35.7436 45.9915C36.1649 45.9915 36.4716 45.9222 36.6636 45.7835C36.8556 45.6395 36.9516 45.4555 36.9516 45.2315C36.9516 45.0448 36.8823 44.8982 36.7436 44.7915C36.6103 44.6848 36.3783 44.5968 36.0476 44.5275L35.1676 44.3435C34.6609 44.2368 34.2823 44.0582 34.0316 43.8075C33.7863 43.5515 33.6636 43.2155 33.6636 42.7995C33.6636 42.5382 33.7169 42.3008 33.8236 42.0875C33.9303 41.8742 34.0796 41.6902 34.2716 41.5355C34.4689 41.3808 34.7009 41.2635 34.9676 41.1835C35.2396 41.0982 35.5383 41.0555 35.8636 41.0555C36.1836 41.0555 36.4876 41.0955 36.7756 41.1755C37.0636 41.2555 37.3223 41.3728 37.5516 41.5275C37.6369 41.5862 37.6929 41.6582 37.7196 41.7435C37.7516 41.8288 37.7596 41.9142 37.7436 41.9995C37.7276 42.0795 37.6903 42.1488 37.6316 42.2075C37.5729 42.2662 37.4983 42.3008 37.4076 42.3115C37.3223 42.3222 37.2236 42.2955 37.1116 42.2315C36.9143 42.1195 36.7143 42.0395 36.5116 41.9915C36.3089 41.9435 36.0903 41.9195 35.8556 41.9195C35.6103 41.9195 35.3996 41.9542 35.2236 42.0235C35.0476 42.0928 34.9116 42.1915 34.8156 42.3195C34.7249 42.4422 34.6796 42.5888 34.6796 42.7595C34.6796 42.9515 34.7436 43.1062 34.8716 43.2235C34.9996 43.3355 35.2183 43.4235 35.5276 43.4875L36.3996 43.6715C36.9276 43.7835 37.3196 43.9595 37.5756 44.1995C37.8369 44.4395 37.9676 44.7595 37.9676 45.1595C37.9676 45.4155 37.9143 45.6475 37.8076 45.8555C37.7063 46.0635 37.5569 46.2422 37.3596 46.3915C37.1676 46.5408 36.9356 46.6555 36.6636 46.7355C36.3916 46.8155 36.0849 46.8555 35.7436 46.8555Z" fill="#262626"/>
</g>
<defs>
<clipPath id="clip0_117_502">
<rect width="50" height="50" fill="white"/>
</clipPath>
<clipPath id="clip1_117_502">
<rect width="39" height="39.7959" fill="white" transform="translate(5.5)"/>
</clipPath>
</defs>
</svg>
